<?xml version="1.0" encoding="UTF-8" standalone="no"?>
<svg
   xmlns:dc="http://purl.org/dc/elements/1.1/"
   xmlns:cc="http://creativecommons.org/ns#"
   xmlns:rdf="http://www.w3.org/1999/02/22-rdf-syntax-ns#"
   xmlns:svg="http://www.w3.org/2000/svg"
   xmlns="http://www.w3.org/2000/svg"
   viewBox="0 0 1000 1000"
   height="1000"
   width="1000"
   xml:space="preserve"
   version="1.1"
   id="svg2"><metadata
     id="metadata8"><rdf:RDF><cc:Work
         rdf:about=""><dc:format>image/svg+xml</dc:format><dc:type
           rdf:resource="http://purl.org/dc/dcmitype/StillImage" /><dc:title></dc:title></cc:Work></rdf:RDF></metadata><defs
     id="defs6" /><g
     transform="matrix(1.25,0,0,-1.25,0,1000)"
     id="g10"><g
       transform="scale(0.1,0.1)"
       id="g12"><path
         id="path14"
         style="fill:#c6d8e9;fill-opacity: 0.12;fill-rule:nonzero;stroke:none"
         d="m 8000,6191.64 -601.24,1043.08 c 0,-28.2 471.37,-825.54 601.24,-1044.69 l 0,1.61" /><path
         id="path16"
         style="fill:#bcd3e5;fill-opacity: 0.12;fill-rule:nonzero;stroke:none"
         d="m 8000,2000.61 c -240.87,195.23 -601.24,486.55 -601.24,481.74 l 0,-7.25 601.24,-478 0,3.51" /><path
         id="path18"
         style="fill:#bcd3e5;fill-opacity: 0.12;fill-rule:nonzero;stroke:none"
         d="m 8000,4464.5 -601.24,-486.37 c 0,0 293.79,232.72 601.24,478.6 l 0,7.77" /><path
         id="path20"
         style="fill:#c6d8e9;fill-opacity: 0.12;fill-rule:nonzero;stroke:none"
         d="m 8000,6961.56 c -304.81,145.23 -601.24,283.73 -601.24,273.16 l 601.24,-281.26 0,8.1" /><path
         id="path22"
         style="fill:#bcd3e5;fill-opacity: 0.12;fill-rule:nonzero;stroke:none"
         d="m 8000,5077.25 -601.24,33.59 601.24,-40.52 0,6.93" /><path
         id="path24"
         style="fill:#b0c9df;fill-opacity: 0.12;fill-rule:nonzero;stroke:none"
         d="m 7887.25,797.199 -93.12,-119.418 -0.27,-0.269 2.7,-2.282 -6.68,-2.921 -0.91,-1.2 -0.62,0.563 -111.32,-48.102 322.97,0 0,318.2 -112.75,-144.571" /><path
         id="path26"
         style="fill:#b0c9df;fill-opacity: 0.12;fill-rule:nonzero;stroke:none"
         d="m 8000,1755.09 -601.24,-209.42 -469.29,-160.3 469.29,-117.7 601.24,-150.85 0,638.27" /><path
         id="path28"
         style="fill:#b0c9df;fill-opacity: 0.12;fill-rule:nonzero;stroke:none"
         d="m 7788.97,671.109 0.91,1.2 -1.53,-0.637 0.62,-0.563" /><path
         id="path30"
         style="fill:#e4edf4;fill-opacity: 0.12;fill-rule:nonzero;stroke:none"
         d="m 8000,1116.82 -601.24,150.85 -469.29,117.7 -1.12,-0.35 157.54,-130.65 312.87,-254.94 395.1,-321.918 0.27,0.269 93.12,119.418 112.75,144.571 0,175.05" /><path
         id="path32"
         style="fill:#bcd3e5;fill-opacity: 0.12;fill-rule:nonzero;stroke:none"
         d="m 8000,2473.13 -601.24,9.22 c 0,4.81 360.37,-286.51 601.24,-481.74 l 0,472.52" /><path
         id="path34"
         style="fill:#d6e4f0;fill-opacity: 0.12;fill-rule:nonzero;stroke:none"
         d="m 8000,2673.5 -601.24,353.43 0,-544.58 601.24,-9.22 0,200.37" /><path
         id="path36"
         style="fill:#e4edf4;fill-opacity: 0.12;fill-rule:nonzero;stroke:none"
         d="m 8000,3081.29 -601.24,-54.36 601.24,-353.43 0,407.79" /><path
         id="path38"
         style="fill:#d3e2ee;fill-opacity: 0.12;fill-rule:nonzero;stroke:none"
         d="m 8000,3613.73 -601.24,364.4 0,-951.2 601.24,54.36 0,532.44" /><path
         id="path40"
         style="fill:#e4edf4;fill-opacity: 0.12;fill-rule:nonzero;stroke:none"
         d="m 8000,4456.73 c -307.45,-245.88 -601.24,-478.6 -601.24,-478.6 l 601.24,-364.4 0,843" /><path
         id="path42"
         style="fill:#bcd3e5;fill-opacity: 0.12;fill-rule:nonzero;stroke:none"
         d="m 8000,5070.32 -601.24,40.52 0,-1132.71 601.24,486.37 0,605.82" /><path
         id="path44"
         style="fill:#c6d8e9;fill-opacity: 0.12;fill-rule:nonzero;stroke:none"
         d="m 8000,6081.69 -601.24,-970.85 601.24,-33.59 0,1004.44" /><path
         id="path46"
         style="fill:#c6d8e9;fill-opacity: 0.12;fill-rule:nonzero;stroke:none"
         d="m 8000,6953.46 -601.24,281.26 601.24,-1043.08 0,761.82" /><path
         id="path48"
         style="fill:#b0c9df;fill-opacity: 0.12;fill-rule:nonzero;stroke:none"
         d="m 7996.21,8000 -597.45,0 0,-765.28 c 0,10.57 296.43,-127.93 601.24,-273.16 l 0,1030.66 -3.79,7.78" /><path
         id="path50"
         style="fill:#eaf1f8;fill-opacity: 0.12;fill-rule:nonzero;stroke:none"
         d="m 6569.61,144.262 829.15,358.847 4.61,2.032 269.5,116.57 4.16,1.859 111.32,48.102 1.53,0.637 6.68,2.921 -2.7,2.282 -395.1,321.918 -312.87,254.94" /><path
         id="path52"
         style="fill:#d3e2ee;fill-opacity: 0.12;fill-rule:nonzero;stroke:none"
         d="m 7085.89,1254.37 -159.51,129.95 -3.18,-1.09 1.23,2.72 -4,3.23 -0.26,-0.57 -704.21,574.57 268.27,-1339.61 -7.54,-1.289 0,-0.129 92.92,-477.89" /><path
         id="path54"
         style="fill:#eaf1f8;fill-opacity: 0.12;fill-rule:nonzero;stroke:none"
         d="m 7672.87,621.711 4.64,1.859 -0.48,0 -4.16,-1.859" /><path
         id="path56"
         style="fill:#d3e2ee;fill-opacity: 0.12;fill-rule:nonzero;stroke:none"
         d="m 7803.14,623.57 -125.63,0 -4.64,-1.859 -269.5,-116.57 -4.61,-2.032 0,-503.109 601.24,0 0,623.57 -196.86,0" /><path
         id="path58"
         style="fill:#d3e2ee;fill-opacity: 0.12;fill-rule:nonzero;stroke:none"
         d="m 0,4827.49 0,-0.97 228.676,-42.39 c 0,0 -92.832,17.66 -228.676,43.36" /><path
         id="path60"
         style="fill:#b0c9df;fill-opacity: 0.12;fill-rule:nonzero;stroke:none"
         d="m 1987.26,8000 c 136.79,-468.05 265.66,-906.86 265.66,-906.86 l -263.45,906.86 -2.21,0" /><path
         id="path62"
         style="fill:#d3e2ee;fill-opacity: 0.12;fill-rule:nonzero;stroke:none"
         d="m 2637.01,2023.06 -725.52,702.53 c 6.06,-16.37 725.52,-702.53 725.52,-702.53" /><path
         id="path64"
         style="fill:#d6e4f0;fill-opacity: 0.12;fill-rule:nonzero;stroke:none"
         d="m 4331.97,2300.79 -816.98,-54.46 1621.8,103.52 -804.82,-49.06" /><path
         id="path66"
         style="fill:#d3e2ee;fill-opacity: 0.12;fill-rule:nonzero;stroke:none"
         d="m 6926.38,1384.32 159.51,-129.95 -157.54,130.65 -1.97,-0.7" /><path
         id="path68"
         style="fill:#e4edf4;fill-opacity: 0.12;fill-rule:nonzero;stroke:none"
         d="m 6929.29,2273.52 -713.33,-310.34 1182.8,511.92 -469.47,-201.58" /><path
         id="path70"
         style="fill:#d6e4f0;fill-opacity: 0.12;fill-rule:nonzero;stroke:none"
         d="M 594.508,1523.88 724.613,790.52 496.977,2126.59 594.508,1523.88" /><path
         id="path72"
         style="fill:#d3e2ee;fill-opacity: 0.12;fill-rule:nonzero;stroke:none"
         d="m 5045.36,2986.98 -713.39,-686.19 1316.99,1258 -603.6,-571.81" /><path
         id="path74"
         style="fill:#d6e4f0;fill-opacity: 0.12;fill-rule:nonzero;stroke:none"
         d="m 4783.16,1794.34 -1268.17,451.99 c -0.19,0.28 -0.06,0.15 0.42,-0.25 23.01,-19.97 1267.75,-451.74 1267.75,-451.74" /><path
         id="path76"
         style="fill:#c6d8e9;fill-opacity: 0.12;fill-rule:nonzero;stroke:none"
         d="m 6215.96,1963.18 c 0,0 402.42,920.31 402.42,925.79 l -402.42,-925.79" /><path
         id="path78"
         style="fill:#d6e4f0;fill-opacity: 0.12;fill-rule:nonzero;stroke:none"
         d="m 5724.68,1159.6 c -62.08,42.34 -947.37,645.31 -941.52,634.74 l 941.52,-634.74" /><path
         id="path80"
         style="fill:#b0c9df;fill-opacity: 0.12;fill-rule:nonzero;stroke:none"
         d="m 3514.99,2246.33 204.6,-220.63 c -116.41,126.18 -197.39,213.73 -204.18,220.38 -0.48,0.4 -0.61,0.53 -0.42,0.25" /><path
         id="path82"
         style="fill:#b0c9df;fill-opacity: 0.12;fill-rule:nonzero;stroke:none"
         d="m 3850.69,2993.39 467.03,1129.91 -0.04,0 c -8.4,-18.55 -451.92,-1093.45 -466.99,-1129.91" /><path
         id="path84"
         style="fill:#bcd3e5;fill-opacity: 0.12;fill-rule:nonzero;stroke:none"
         d="m 1228.62,7768.39 1950.99,-1296.1 -926.69,620.85 -1024.3,675.25" /><path
         id="path86"
         style="fill:#d3e2ee;fill-opacity: 0.12;fill-rule:nonzero;stroke:none"
         d="m 1625.09,3897.25 -576.83,359.89 0.66,-1.33 c 301.15,-193 569.93,-364.8 569.93,-364.8 l 6.24,6.24" /><path
         id="path88"
         style="fill:#c8daea;fill-opacity: 0.12;fill-rule:nonzero;stroke:none"
         d="M 228.676,4784.13 42.2305,3502.19 l 113.3005,759.13 73.145,522.81" /><path
         id="path90"
         style="fill:#d6e4f0;fill-opacity: 0.12;fill-rule:nonzero;stroke:none"
         d="m 228.676,4784.13 c 6.976,-6.23 261.105,-169.76 550.129,-355.18 l -550.129,355.18" /><path
         id="path92"
         style="fill:#c6d8e9;fill-opacity: 0.12;fill-rule:nonzero;stroke:none"
         d="M 6808.18,7063.88 6276.9,6929.74 4959.96,6559.41 c 0,0 1126.29,311.52 1848.22,504.47" /><path
         id="path94"
         style="fill:#b0c9df;fill-opacity: 0.12;fill-rule:nonzero;stroke:none"
         d="m 5727.13,1163.62 c -14.52,71.52 -181.81,734.2 -181.81,734.2 l 181.45,-734.77 0.36,0.57" /><path
         id="path96"
         style="fill:#e4edf4;fill-opacity: 0.12;fill-rule:nonzero;stroke:none"
         d="M 0,730.551 594.508,1523.88 171.777,972.082 0,734.461 l 0,-3.91" /><path
         id="path98"
         style="fill:#e4edf4;fill-opacity: 0.12;fill-rule:nonzero;stroke:none"
         d="m 4541.5,5346.31 c 73.36,-153.13 1107.46,-1787.52 1107.46,-1787.52 l -1111.72,1798.91 1.53,-4.02 c 0.71,-1.9 1.56,-4.33 2.73,-7.37" /><path
         id="path100"
         style="fill:#c6d8e9;fill-opacity: 0.12;fill-rule:nonzero;stroke:none"
         d="m 1591.88,623.57 78.06,-228.769 0.14,0 -76.82,228.769 -299.62,893.08 154.44,-472 143.8,-421.08" /><path
         id="path102"
         style="fill:#b0c9df;fill-opacity: 0.12;fill-rule:nonzero;stroke:none"
         d="m 6618.38,2888.97 -969.42,669.82 c 26.38,-23.58 969.42,-669.82 969.42,-669.82" /><path
         id="path104"
         style="fill:#eaf1f8;fill-opacity: 0.12;fill-rule:nonzero;stroke:none"
         d="m 1060.81,6869.05 -76.119,-407.61 6.289,-5.96 c 11.63,69.73 38.35,229.01 69.83,413.57" /><path
         id="path106"
         style="fill:#c8daea;fill-opacity: 0.12;fill-rule:nonzero;stroke:none"
         d="m 2635.01,4907.52 1682.71,-784.22 -942.99,442.97 -739.72,341.25" /><path
         id="path108"
         style="fill:#e4edf4;fill-opacity: 0.12;fill-rule:nonzero;stroke:none"
         d="m 4317.72,4123.3 1331.24,-564.51 -526.37,223.3 -804.87,341.21" /><path
         id="path110"
         style="fill:#eaf1f8;fill-opacity: 0.12;fill-rule:nonzero;stroke:none"
         d="m 5240.47,5372.27 -280.51,1187.14 689,-3000.62 -408.49,1813.48" /><path
         id="path112"
         style="fill:#b0c9df;fill-opacity: 0.12;fill-rule:nonzero;stroke:none"
         d="m 3740.56,1565.61 317.1,-942.04 -542.67,1622.76 225.57,-680.72" /><path
         id="path114"
         style="fill:#e4edf4;fill-opacity: 0.12;fill-rule:nonzero;stroke:none"
         d="m 2830.35,1098.05 -55.98,267.79 c 28.51,-138.29 51.24,-248.63 55.1,-267.47 l 0.88,-0.32" /><path
         id="path116"
         style="fill:#d6e4f0;fill-opacity: 0.12;fill-rule:nonzero;stroke:none"
         d="m 6920.43,1389.18 4,-3.23 474.33,1089.15 -478.33,-1085.92" /><path
         id="path118"
         style="fill:#e4edf4;fill-opacity: 0.12;fill-rule:nonzero;stroke:none"
         d="m 1884.82,5613.9 750.19,-706.38 -747.92,704.35 -2.27,2.03" /><path
         id="path120"
         style="fill:#c6d8e9;fill-opacity: 0.12;fill-rule:nonzero;stroke:none"
         d="m 1253.02,3346.43 365.83,544.58 -682.702,-996.37 316.872,451.79" /><path
         id="path122"
         style="fill:#e4edf4;fill-opacity: 0.12;fill-rule:nonzero;stroke:none"
         d="m 6476.69,622.281 7.54,1.289 -268.27,1339.61 c 0,0 -487.75,-822.28 -487.75,-805.96" /><path
         id="path124"
         style="fill:#eaf1f8;fill-opacity: 0.12;fill-rule:nonzero;stroke:none"
         d="M 5728.21,1157.22 5398.17,623.57 5277.05,427.5 6476.69,622.281" /><path
         id="path126"
         style="fill:#eaf1f8;fill-opacity: 0.12;fill-rule:nonzero;stroke:none"
         d="m 5728.21,1157.22 c 0,0.72 -0.53,3.19 -1.08,6.4 l -0.36,-0.57 1.44,-5.83" /><path
         id="path128"
         style="fill:#d6e4f0;fill-opacity: 0.12;fill-rule:nonzero;stroke:none"
         d="m 5724.68,1159.6 -941.52,634.74 -103.65,-811.399 1048.7,174.279 -3.53,2.38" /><path
         id="path130"
         style="fill:#c6d8e9;fill-opacity: 0.12;fill-rule:nonzero;stroke:none"
         d="M 5728.21,1157.22 4679.51,982.941 5066.13,623.57 5277.05,427.5 l 121.12,196.07 330.04,533.65" /><path
         id="path132"
         style="fill:#eaf1f8;fill-opacity: 0.12;fill-rule:nonzero;stroke:none"
         d="m 3515.41,2246.08 c 6.79,-6.65 87.77,-94.2 204.18,-220.38 l 295.3,-318.53 c 0,0 658.49,-713.33 664.62,-724.229 l 103.65,811.399 c 0,0 -1244.74,431.77 -1267.75,451.74" /><path
         id="path134"
         style="fill:#d6e4f0;fill-opacity: 0.12;fill-rule:nonzero;stroke:none"
         d="m 4014.89,1707.17 42.77,-1083.6 621.85,359.371 c -6.13,10.899 -664.62,724.229 -664.62,724.229" /><path
         id="path136"
         style="fill:#b0c9df;fill-opacity: 0.12;fill-rule:nonzero;stroke:none"
         d="m 3719.59,2025.7 -204.6,220.63 542.67,-1622.76 -42.77,1083.6 -295.3,318.53" /><path
         id="path138"
         style="fill:#c6d8e9;fill-opacity: 0.12;fill-rule:nonzero;stroke:none"
         d="M 3130.15,623.57 2978.44,389.371 4057.66,623.57 3740.56,1565.61 3130.15,623.57" /><path
         id="path140"
         style="fill:#e4edf4;fill-opacity: 0.12;fill-rule:nonzero;stroke:none"
         d="m 2774.37,1365.84 55.98,-267.79 1.79,-0.74 97.89,-473.74 48.41,-234.199 151.71,234.199 610.41,942.04 -1103.55,457.45 c 0,7.02 80.31,-380.92 137.36,-657.22" /><path
         id="path142"
         style="fill:#bcd3e5;fill-opacity: 0.12;fill-rule:nonzero;stroke:none"
         d="m 3740.56,1565.61 -225.57,680.72 -877.98,-223.27 1103.55,-457.45" /><path
         id="path144"
         style="fill:#eaf1f8;fill-opacity: 0.12;fill-rule:nonzero;stroke:none"
         d="m 2774.37,1365.84 c -57.05,276.3 -137.36,664.24 -137.36,657.22 l -481.7,-642.54 674.16,-282.15 c -3.86,18.84 -26.59,129.18 -55.1,267.47" /><path
         id="path146"
         style="fill:#d6e4f0;fill-opacity: 0.12;fill-rule:nonzero;stroke:none"
         d="m 2832.14,1097.31 -1.79,0.74 -0.88,0.32 -674.16,282.15 628.62,-756.95 194.51,-234.199 -48.41,234.199 -97.89,473.74" /><path
         id="path148"
         style="fill:#d3e2ee;fill-opacity: 0.12;fill-rule:nonzero;stroke:none"
         d="m 1911.49,2725.59 243.82,-1345.07 481.7,642.54 c 0,0 -719.46,686.16 -725.52,702.53" /><path
         id="path150"
         style="fill:#e4edf4;fill-opacity: 0.12;fill-rule:nonzero;stroke:none"
         d="M 1293.64,1516.65 2155.31,1380.52 1911.49,2725.59 1293.64,1516.65" /><path
         id="path152"
         style="fill:#c6d8e9;fill-opacity: 0.12;fill-rule:nonzero;stroke:none"
         d="m 2155.31,1380.52 -861.67,136.13 299.62,-893.08 76.82,-228.769 0.34,-1.262 3.24,-9.617 115.83,239.648 365.82,756.95" /><path
         id="path154"
         style="fill:#c6d8e9;fill-opacity: 0.12;fill-rule:nonzero;stroke:none"
         d="m 1293.64,1516.65 -569.027,-726.13 723.467,254.13 -154.44,472" /><path
         id="path156"
         style="fill:#d6e4f0;fill-opacity: 0.12;fill-rule:nonzero;stroke:none"
         d="M 496.977,2126.59 724.613,790.52 1293.64,1516.65 496.977,2126.59" /><path
         id="path158"
         style="fill:#d3e2ee;fill-opacity: 0.12;fill-rule:nonzero;stroke:none"
         d="M 1423.67,2513.23 496.977,2126.59 1293.64,1516.65 1911.49,2725.59 1423.67,2513.23" /><path
         id="path160"
         style="fill:#e4edf4;fill-opacity: 0.12;fill-rule:nonzero;stroke:none"
         d="M 0,640.211 724.613,790.52 594.508,1523.88 0,730.551 0,640.211" /><path
         id="path162"
         style="fill:#d3e2ee;fill-opacity: 0.12;fill-rule:nonzero;stroke:none"
         d="M 0,1956.55 594.508,1523.88 496.977,2126.59 0,2223.99 0,1956.55" /><path
         id="path164"
         style="fill:#d3e2ee;fill-opacity: 0.12;fill-rule:nonzero;stroke:none"
         d="M 0,1956.55 0,1318.28 171.777,972.082 594.508,1523.88 0,1956.55" /><path
         id="path166"
         style="fill:#d3e2ee;fill-opacity: 0.12;fill-rule:nonzero;stroke:none"
         d="M 0,1318.28 0,734.461 171.777,972.082 0,1318.28" /><path
         id="path168"
         style="fill:#d6e4f0;fill-opacity: 0.12;fill-rule:nonzero;stroke:none"
         d="m 7398.76,2475.1 -474.33,-1089.15 -1.23,-2.72 3.18,1.09 1.97,0.7 1.12,0.35 469.29,160.3 601.24,209.42 0,242.01 -601.24,478" /><path
         id="path170"
         style="fill:#e4edf4;fill-opacity: 0.12;fill-rule:nonzero;stroke:none"
         d="m 6215.96,1963.18 704.21,-574.57 0.26,0.57 478.33,1085.92 -1182.8,-511.92" /><path
         id="path172"
         style="fill:#c8daea;fill-opacity: 0.12;fill-rule:nonzero;stroke:none"
         d="m 2637.01,2023.06 54.85,1100.06 -780.37,-397.53 725.52,-702.53" /><path
         id="path174"
         style="fill:#d6e4f0;fill-opacity: 0.12;fill-rule:nonzero;stroke:none"
         d="M 935.918,2894.43 637.203,3128.6 C 643.297,3114 496.977,2126.59 496.977,2126.59 l 926.693,386.64 487.82,212.36 -975.572,168.84" /><path
         id="path176"
         style="fill:#c6d8e9;fill-opacity: 0.12;fill-rule:nonzero;stroke:none"
         d="m 2637.01,2023.06 877.98,223.27 -823.13,876.79 -54.85,-1100.06" /><path
         id="path178"
         style="fill:#c6d8e9;fill-opacity: 0.12;fill-rule:nonzero;stroke:none"
         d="m 5724.68,1159.6 3.53,-2.38 -1.44,5.83 -181.45,734.77 -762.16,-103.48 c -5.85,10.57 879.44,-592.4 941.52,-634.74" /><path
         id="path180"
         style="fill:#b0c9df;fill-opacity: 0.12;fill-rule:nonzero;stroke:none"
         d="m 5727.13,1163.62 c 0.55,-3.21 1.08,-5.68 1.08,-6.4 0,-16.32 487.75,805.96 487.75,805.96 l -670.64,-65.36 c 0,0 167.29,-662.68 181.81,-734.2" /><path
         id="path182"
         style="fill:#eaf1f8;fill-opacity: 0.12;fill-rule:nonzero;stroke:none"
         d="m 6618.38,2888.97 c 0,-5.48 -402.42,-925.79 -402.42,-925.79 l 713.33,310.34 -310.91,615.45" /><path
         id="path184"
         style="fill:#b0c9df;fill-opacity: 0.12;fill-rule:nonzero;stroke:none"
         d="m 7398.76,2475.1 -780.38,413.87 310.91,-615.45 469.47,201.58" /><path
         id="path186"
         style="fill:#e4edf4;fill-opacity: 0.12;fill-rule:nonzero;stroke:none"
         d="m 7398.76,2475.19 0,549.88 -780.38,-136.1 780.38,-413.87 0,0.09" /><path
         id="path188"
         style="fill:#c6d8e9;fill-opacity: 0.12;fill-rule:nonzero;stroke:none"
         d="m 6167.16,2469.64 -621.84,-571.82 670.64,65.36 402.42,925.79 -451.22,-419.33" /><path
         id="path190"
         style="fill:#e4edf4;fill-opacity: 0.12;fill-rule:nonzero;stroke:none"
         d="m 4783.16,1794.34 762.16,103.48 -408.53,452.03 -353.63,-555.51" /><path
         id="path192"
         style="fill:#d6e4f0;fill-opacity: 0.12;fill-rule:nonzero;stroke:none"
         d="m 5136.79,2349.85 -1621.8,-103.52 1268.17,-451.99 353.63,555.51" /><path
         id="path194"
         style="fill:#bcd3e5;fill-opacity: 0.12;fill-rule:nonzero;stroke:none"
         d="m 5545.32,1897.82 621.84,571.82 -1030.37,-119.79 408.53,-452.03" /><path
         id="path196"
         style="fill:#c6d8e9;fill-opacity: 0.12;fill-rule:nonzero;stroke:none"
         d="m 5136.79,2349.85 1030.37,119.79 -518.2,1089.15 -512.17,-1208.94" /><path
         id="path198"
         style="fill:#d3e2ee;fill-opacity: 0.12;fill-rule:nonzero;stroke:none"
         d="m 4331.97,2300.79 804.82,49.06 512.17,1208.94 -1316.99,-1258" /><path
         id="path200"
         style="fill:#eaf1f8;fill-opacity: 0.12;fill-rule:nonzero;stroke:none"
         d="m 3850.34,2992.42 -335.35,-746.09 816.98,54.46 -481.63,691.63" /><path
         id="path202"
         style="fill:#c6d8e9;fill-opacity: 0.12;fill-rule:nonzero;stroke:none"
         d="m 3850.34,2992.42 481.63,-691.63 713.39,686.19 -1195.02,5.44" /><path
         id="path204"
         style="fill:#bcd3e5;fill-opacity: 0.12;fill-rule:nonzero;stroke:none"
         d="m 2691.86,3123.12 823.13,-876.79 335.35,746.09 -1158.48,130.7" /><path
         id="path206"
         style="fill:#bcd3e5;fill-opacity: 0.12;fill-rule:nonzero;stroke:none"
         d="m 6167.16,2469.64 451.22,419.33 c 0,0 -943.04,646.24 -969.42,669.82 l 518.2,-1089.15" /><path
         id="path208"
         style="fill:#b0c9df;fill-opacity: 0.12;fill-rule:nonzero;stroke:none"
         d="m 6618.38,2888.97 c 0,0 97.51,1415.9 97.51,1437.71 l -1066.93,-767.89 969.42,-669.82" /><path
         id="path210"
         style="fill:#c6d8e9;fill-opacity: 0.12;fill-rule:nonzero;stroke:none"
         d="m 6618.38,2888.97 780.38,1096.4 -682.87,341.31 c 0,-21.81 -97.51,-1437.71 -97.51,-1437.71" /><path
         id="path212"
         style="fill:#eaf1f8;fill-opacity: 0.12;fill-rule:nonzero;stroke:none"
         d="m 7398.76,3025.07 0,960.3 -780.38,-1096.4 780.38,136.1" /><path
         id="path214"
         style="fill:#c8daea;fill-opacity: 0.12;fill-rule:nonzero;stroke:none"
         d="M 0,2468.6 0,2223.99 496.977,2126.59 0,2468.6" /><path
         id="path216"
         style="fill:#e4edf4;fill-opacity: 0.12;fill-rule:nonzero;stroke:none"
         d="M 637.203,3128.6 0,3137.13 0,2468.6 496.977,2126.59 c 0,0 146.32,987.41 140.226,1002.01" /><path
         id="path218"
         style="fill:#b0c9df;fill-opacity: 0.12;fill-rule:nonzero;stroke:none"
         d="M 0,3137.13 637.203,3128.6 41.7461,3498.87 0,3525.22 0,3137.13" /><path
         id="path220"
         style="fill:#e4edf4;fill-opacity: 0.12;fill-rule:nonzero;stroke:none"
         d="M 0,4826.52 0,4675.45 228.676,4784.13 0,4826.52" /><path
         id="path222"
         style="fill:#c8daea;fill-opacity: 0.12;fill-rule:nonzero;stroke:none"
         d="m 0,4675.45 0,-1150.23 41.7461,-26.35 0.4844,3.32 L 228.676,4784.13 0,4675.45" /><path
         id="path224"
         style="fill:#d3e2ee;fill-opacity: 0.12;fill-rule:nonzero;stroke:none"
         d="M 41.7461,3498.87 637.203,3128.6 1618.85,3891.01 41.7461,3498.87" /><path
         id="path226"
         style="fill:#e4edf4;fill-opacity: 0.12;fill-rule:nonzero;stroke:none"
         d="M 155.531,4261.32 42.2305,3502.19 41.7461,3498.87 1618.85,3891.01 155.531,4261.32" /><path
         id="path228"
         style="fill:#eaf1f8;fill-opacity: 0.12;fill-rule:nonzero;stroke:none"
         d="m 1618.85,3891.01 c 0,0 -268.78,171.8 -569.93,364.8 l 0.84,-1.78 -270.955,174.92 C 489.781,4614.37 235.652,4777.9 228.676,4784.13 L 155.531,4261.32 1618.85,3891.01" /><path
         id="path230"
         style="fill:#e4edf4;fill-opacity: 0.12;fill-rule:nonzero;stroke:none"
         d="m 7398.76,3985.37 0,1118.22 c 0,-7.25 -682.87,-776.91 -682.87,-776.91 l 682.87,-341.31" /><path
         id="path232"
         style="fill:#d3e2ee;fill-opacity: 0.12;fill-rule:nonzero;stroke:none"
         d="m 0,4827.49 c 135.844,-25.7 228.676,-43.36 228.676,-43.36 L 212.465,6032.94 0,5864.94 0,4827.49" /><path
         id="path234"
         style="fill:#c6d8e9;fill-opacity: 0.12;fill-rule:nonzero;stroke:none"
         d="M 1618.85,3891.01 1253.02,3346.43 936.148,2894.64 1618.85,3891.01 637.203,3128.6 935.918,2894.43 1911.49,2725.59 1618.85,3891.01" /><path
         id="path236"
         style="fill:#d6e4f0;fill-opacity: 0.12;fill-rule:nonzero;stroke:none"
         d="M 4317.72,4123.3 3850.69,2993.39 c -0.26,-0.61 -0.35,-0.97 -0.35,-0.97 l 1195.02,-5.44 603.6,571.81 -1331.24,564.51" /><path
         id="path238"
         style="fill:#e4edf4;fill-opacity: 0.12;fill-rule:nonzero;stroke:none"
         d="m 6715.89,4326.68 -317,1198.07 -749.93,-1965.96 1066.93,767.89" /><path
         id="path240"
         style="fill:#eaf1f8;fill-opacity: 0.12;fill-rule:nonzero;stroke:none"
         d="m 2326.07,4595.28 -690.97,-704.27 -10.01,6.24 -6.24,-6.24 292.64,-1165.42 723.52,2181.93 -308.94,-312.24" /><path
         id="path242"
         style="fill:#80a7cd;fill-opacity: 0.12;fill-rule:nonzero;stroke:none"
         d="m 4538.77,5353.68 2.69,-7.29 c 0,0 0.04,0 0.04,-0.08 -1.17,3.04 -2.02,5.47 -2.73,7.37" /><path
         id="path244"
         style="fill:#d6e4f0;fill-opacity: 0.12;fill-rule:nonzero;stroke:none"
         d="m 778.805,4428.95 270.955,-174.92 -0.84,1.78 -0.66,1.33 -6.58,4.18 -337.383,697.05 -491.832,1074.57 16.211,-1248.81 550.129,-355.18" /><path
         id="path246"
         style="fill:#d3e2ee;fill-opacity: 0.12;fill-rule:nonzero;stroke:none"
         d="m 1635.1,3891.01 690.97,704.27 -1284.39,-333.96 6.58,-4.18 576.83,-359.89 10.01,-6.24" /><path
         id="path248"
         style="fill:#d6e4f0;fill-opacity: 0.12;fill-rule:nonzero;stroke:none"
         d="m 1911.49,2725.59 780.37,397.53 -56.85,1784.4 -723.52,-2181.93" /><path
         id="path250"
         style="fill:#b0c9df;fill-opacity: 0.12;fill-rule:nonzero;stroke:none"
         d="M 4317.68,4123.3 2691.86,3123.12 3850.34,2992.42 c 0,0 0.09,0.36 0.35,0.97 15.07,36.46 458.59,1111.36 466.99,1129.91" /><path
         id="path252"
         style="fill:#eaf1f8;fill-opacity: 0.12;fill-rule:nonzero;stroke:none"
         d="m 4538.77,5353.68 -1.53,4.02 c -0.27,-1.11 1.28,-5.16 4.22,-11.31 l -2.69,7.29" /><path
         id="path254"
         style="fill:#e4edf4;fill-opacity: 0.12;fill-rule:nonzero;stroke:none"
         d="m 4541.5,5346.31 c 0,0.08 -0.04,0.08 -0.04,0.08 -2.94,6.15 -4.49,10.2 -4.22,11.31 L 4317.77,4123.52 c 0.15,0.19 0.08,0.19 -0.05,-0.22 l 804.87,-341.21 526.37,-223.3 c 0,0 -1034.1,1634.39 -1107.46,1787.52" /><path
         id="path256"
         style="fill:#eaf1f8;fill-opacity: 0.12;fill-rule:nonzero;stroke:none"
         d="m 6715.89,4326.68 c 0,0 682.87,769.66 682.87,776.91 l -999.87,421.16 317,-1198.07" /><path
         id="path258"
         style="fill:#bcd3e5;fill-opacity: 0.12;fill-rule:nonzero;stroke:none"
         d="m 0,6044.11 0,-179.17 212.465,168 L 0,6044.11" /><path
         id="path260"
         style="fill:#e4edf4;fill-opacity: 0.12;fill-rule:nonzero;stroke:none"
         d="M 212.465,6032.94 704.297,4958.37 984.691,6461.44" /><path
         id="path262"
         style="fill:#eaf1f8;fill-opacity: 0.12;fill-rule:nonzero;stroke:none"
         d="m 984.691,6461.44 76.119,407.61 c 61.71,361.93 141.85,820.89 163,891.15 L 212.465,6032.94" /><path
         id="path264"
         style="fill:#c8daea;fill-opacity: 0.12;fill-rule:nonzero;stroke:none"
         d="m 4317.72,4123.3 0,0 -1682.71,784.22 56.85,-1784.4 1625.82,1000.18 0.04,0" /><path
         id="path266"
         style="fill:#eaf1f8;fill-opacity: 0.12;fill-rule:nonzero;stroke:none"
         d="m 5648.96,3558.79 -689,3000.62 L 4537.24,5357.7 5648.96,3558.79" /><path
         id="path268"
         style="fill:#d3e2ee;fill-opacity: 0.12;fill-rule:nonzero;stroke:none"
         d="m 7398.76,5103.59 0,2102.43 C 7366.19,7090.07 6398.89,5524.75 6398.89,5524.75 l 999.87,-421.16" /><path
         id="path270"
         style="fill:#c6d8e9;fill-opacity: 0.12;fill-rule:nonzero;stroke:none"
         d="M 704.297,4958.37 1041.68,4261.32 2326.07,4595.28 704.297,4958.37" /><path
         id="path272"
         style="fill:#e4edf4;fill-opacity: 0.12;fill-rule:nonzero;stroke:none"
         d="m 2635.01,4907.52 -1930.713,50.85 1621.773,-363.09 308.94,312.24" /><path
         id="path274"
         style="fill:#d6e4f0;fill-opacity: 0.12;fill-rule:nonzero;stroke:none"
         d="M 5648.96,3558.79 6398.89,5524.75 5240.47,5372.27 5648.96,3558.79" /><path
         id="path276"
         style="fill:#d6e4f0;fill-opacity: 0.12;fill-rule:nonzero;stroke:none"
         d="M 0,6132.25 0,6044.11 212.465,6032.94 0,6132.25" /><path
         id="path278"
         style="fill:#eaf1f8;fill-opacity: 0.12;fill-rule:nonzero;stroke:none"
         d="m 4317.72,4123.3 0,0 c 0.13,0.41 0.2,0.41 0.05,0.22 L 4537.24,5357.7 3374.73,4566.27 4317.72,4123.3" /><path
         id="path280"
         style="fill:#c8daea;fill-opacity: 0.12;fill-rule:nonzero;stroke:none"
         d="M 0,7239.98 0,6132.25 212.465,6032.94 0,7239.98" /><path
         id="path282"
         style="fill:#d3e2ee;fill-opacity: 0.12;fill-rule:nonzero;stroke:none"
         d="M 704.297,4958.37 2635.01,4907.52 1884.82,5613.9" /><path
         id="path284"
         style="fill:#d6e4f0;fill-opacity: 0.12;fill-rule:nonzero;stroke:none"
         d="m 1884.82,5613.9 -900.129,803.93 c 0,0 2.297,13.54 6.289,37.65 l -6.289,5.96 -280.394,-1503.07" /><path
         id="path286"
         style="fill:#d3e2ee;fill-opacity: 0.12;fill-rule:nonzero;stroke:none"
         d="M 6398.89,5524.75 4959.96,6559.41 5240.47,5372.27 6398.89,5524.75" /><path
         id="path288"
         style="fill:#c6d8e9;fill-opacity: 0.12;fill-rule:nonzero;stroke:none"
         d="M 4959.96,6559.41 6398.89,5524.75 c 0,0 967.3,1565.32 999.87,1681.27 l 0,6.93 -590.58,-149.07 C 6086.25,6870.93 4959.96,6559.41 4959.96,6559.41" /><path
         id="path290"
         style="fill:#d9e6f0;fill-opacity: 0.12;fill-rule:nonzero;stroke:none"
         d="M 0,7993.76 0,7239.98 212.465,6032.94 1223.81,7760.2 c 1.37,4.6 2.43,7.31 3.31,8.47 L 0,7993.76" /><path
         id="path292"
         style="fill:#d6e4f0;fill-opacity: 0.12;fill-rule:nonzero;stroke:none"
         d="M 4537.24,5357.7 3179.61,6472.29 2635.01,4907.52 4537.24,5357.7" /><path
         id="path294"
         style="fill:#e4edf4;fill-opacity: 0.12;fill-rule:nonzero;stroke:none"
         d="M 3374.73,4566.27 4537.24,5357.7 2635.01,4907.52 3374.73,4566.27" /><path
         id="path296"
         style="fill:#d3e2ee;fill-opacity: 0.12;fill-rule:nonzero;stroke:none"
         d="M 4537.24,5357.7 4959.96,6559.41 3179.61,6472.29 4537.24,5357.7" /><path
         id="path298"
         style="fill:#c6d8e9;fill-opacity: 0.12;fill-rule:nonzero;stroke:none"
         d="M 1037.75,8000 0,8000 l 0,-6.24 1227.12,-225.09 c 0.25,0.33 0.54,0.69 0.71,0.69 L 1037.75,8000" /><path
         id="path300"
         style="fill:#e4edf4;fill-opacity: 0.12;fill-rule:nonzero;stroke:none"
         d="m 7398.76,8000 -396.81,0 396.81,-787.05 0,-2102.11 601.24,970.85 0,108.34 c -129.87,219.15 -601.24,1016.49 -601.24,1044.69 l 0,765.28" /><path
         id="path302"
         style="fill:#e4edf4;fill-opacity: 0.12;fill-rule:nonzero;stroke:none"
         d="m 2635.01,4907.52 544.6,1564.77 -1292.52,-860.42 747.92,-704.35" /><path
         id="path304"
         style="fill:#eaf1f8;fill-opacity: 0.12;fill-rule:nonzero;stroke:none"
         d="M 5165.83,8000 4959.96,6559.41 6276.9,6929.74 5269.05,8000 l -103.22,0" /><path
         id="path306"
         style="fill:#e4edf4;fill-opacity: 0.12;fill-rule:nonzero;stroke:none"
         d="m 5269.05,8000 1007.85,-1070.26 531.28,134.14 590.58,149.07 -1979.91,787.05 -149.8,0" /><path
         id="path308"
         style="fill:#e4edf4;fill-opacity: 0.12;fill-rule:nonzero;stroke:none"
         d="m 984.691,6417.83 900.129,-803.93 2.27,-2.03 -658.47,2156.52 -0.79,0.97 c -0.17,0 -0.46,-0.36 -0.71,-0.69 -0.88,-1.16 -1.94,-3.87 -3.31,-8.47 -21.15,-70.26 -101.29,-529.22 -163,-891.15 -31.48,-184.56 -58.2,-343.84 -69.83,-413.57 -3.992,-24.11 -6.289,-37.65 -6.289,-37.65" /><path
         id="path310"
         style="fill:#b0c9df;fill-opacity: 0.12;fill-rule:nonzero;stroke:none"
         d="m 1037.75,8000 190.08,-230.64 0.79,-0.97 c 0,0 30.23,93.74 74.81,231.61 l -265.68,0" /><path
         id="path312"
         style="fill:#eaf1f8;fill-opacity: 0.12;fill-rule:nonzero;stroke:none"
         d="m 1887.09,5611.87 1292.52,860.42 -929.11,617.24" /><path
         id="path314"
         style="fill:#c8daea;fill-opacity: 0.12;fill-rule:nonzero;stroke:none"
         d="M 2250.5,7089.53 1228.62,7768.39 1887.09,5611.87" /><path
         id="path316"
         style="fill:#d6e4f0;fill-opacity: 0.12;fill-rule:nonzero;stroke:none"
         d="m 5418.85,8000 1979.91,-787.05 -396.81,787.05 -1583.1,0" /><path
         id="path318"
         style="fill:#bcd3e5;fill-opacity: 0.12;fill-rule:nonzero;stroke:none"
         d="M 3986.97,8000 2252.92,7093.14 3179.61,6472.29 4070,8000 l -83.03,0" /><path
         id="path320"
         style="fill:#b0c9df;fill-opacity: 0.12;fill-rule:nonzero;stroke:none"
         d="m 1989.47,8000 263.45,-906.86 1734.05,906.86 -1997.5,0" /><path
         id="path322"
         style="fill:#c8daea;fill-opacity: 0.12;fill-rule:nonzero;stroke:none"
         d="M 4070,8000 3179.61,6472.29 4959.96,6559.41 4141.87,8000 4070,8000" /><path
         id="path324"
         style="fill:#d6e4f0;fill-opacity: 0.12;fill-rule:nonzero;stroke:none"
         d="M 4141.87,8000 4959.96,6559.41 5165.83,8000 4141.87,8000" /><path
         id="path326"
         style="fill:#d9e6f0;fill-opacity: 0.12;fill-rule:nonzero;stroke:none"
         d="m 1303.43,8000 c -44.58,-137.87 -74.81,-231.61 -74.81,-231.61 l 1024.3,-675.25 c 0,0 -128.87,438.81 -265.66,906.86 l -683.83,0" /><path
         id="path328"
         style="fill:#b0c9df;fill-opacity: 0.12;fill-rule:nonzero;stroke:none"
         d="m 2550.24,387.551 446.45,-3.629 1060.97,239.648 -1079.22,-234.199 -428.2,-1.82" /><path
         id="path330"
         style="fill:#c6d8e9;fill-opacity: 0.12;fill-rule:nonzero;stroke:none"
         d="M 6476.69,622.281 5277.05,427.5 4057.66,623.57 5277.05,405.711 l 1199.64,216.441 0,0.129" /><path
         id="path332"
         style="fill:#5385bb;fill-opacity: 0.12;fill-rule:nonzero;stroke:none"
         d="m 1782.27,0 -111.66,384.359 -0.67,0.063 C 1680,345.371 1722.15,198.148 1779.54,0 l 2.73,0" /><path
         id="path334"
         style="fill:#c6d8e9;fill-opacity: 0.12;fill-rule:nonzero;stroke:none"
         d="M 0,545.879 0,0 449.906,0 0,545.879" /><path
         id="path336"
         style="fill:#e4edf4;fill-opacity: 0.12;fill-rule:nonzero;stroke:none"
         d="m 7398.76,0 0,503.109 L 6569.61,144.262 6642.34,0 7398.76,0" /><path
         id="path338"
         style="fill:#c6d8e9;fill-opacity: 0.12;fill-rule:nonzero;stroke:none"
         d="M 0,612.531 0,545.879 449.906,0 1535.08,0 c 62.5,191.18 113.8,346.219 128.35,385.309 L 0,612.531" /><path
         id="path340"
         style="fill:#b0c9df;fill-opacity: 0.12;fill-rule:nonzero;stroke:none"
         d="M 4081.54,0 4057.66,623.57 2996.69,383.922 3408.43,0 4081.54,0" /><path
         id="path342"
         style="fill:#eaf1f8;fill-opacity: 0.12;fill-rule:nonzero;stroke:none"
         d="M 6642.34,0 6569.61,144.262 6306.55,0 6642.34,0" /><path
         id="path344"
         style="fill:#c6d8e9;fill-opacity: 0.12;fill-rule:nonzero;stroke:none"
         d="M 5277.05,405.711 6569.61,144.262 6476.69,622.152 5277.05,405.711" /><path
         id="path346"
         style="fill:#d1e0ed;fill-opacity: 0.12;fill-rule:nonzero;stroke:none"
         d="m 1670.4,393.621 0.02,-0.082 -0.34,1.262 -0.14,0 0.46,-1.18" /><path
         id="path348"
         style="fill:#e4edf4;fill-opacity: 0.12;fill-rule:nonzero;stroke:none"
         d="m 3408.43,0 -411.74,383.922 -446.45,3.629 -857.4,-3.571 L 2588.42,0 3408.43,0" /><path
         id="path350"
         style="fill:#c6d8e9;fill-opacity: 0.12;fill-rule:nonzero;stroke:none"
         d="M 4827.53,0 5277.05,405.711 4057.66,623.57 4081.54,0 4827.53,0" /><path
         id="path352"
         style="fill:#c6d8e9;fill-opacity: 0.12;fill-rule:nonzero;stroke:none"
         d="m 2588.42,0 -895.58,383.98 -19.18,-0.058 -3.05,0.437 L 1782.27,0 2588.42,0" /><path
         id="path354"
         style="fill:#5b8bbe;fill-opacity: 0.12;fill-rule:nonzero;stroke:none"
         d="m 1670.4,393.621 3.26,-9.699 -3.24,9.617 -0.02,0.082" /><path
         id="path356"
         style="fill:#b0c9df;fill-opacity: 0.12;fill-rule:nonzero;stroke:none"
         d="M 6306.55,0 6569.61,144.262 5277.05,405.711 5238.4,0 6306.55,0" /><path
         id="path358"
         style="fill:#eaf1f8;fill-opacity: 0.12;fill-rule:nonzero;stroke:none"
         d="M 5238.4,0 5277.05,405.711 4827.53,0 5238.4,0" /><path
         id="path360"
         style="fill:#b0c9df;fill-opacity: 0.12;fill-rule:nonzero;stroke:none"
         d="M 5066.13,623.57 4679.51,982.941 4057.66,623.57 5277.05,427.5 5066.13,623.57" /><path
         id="path362"
         style="fill:#eaf1f8;fill-opacity: 0.12;fill-rule:nonzero;stroke:none"
         d="m 2783.93,623.57 -628.62,756.95 -365.82,-756.95 -115.83,-239.648 19.18,0.058 857.4,3.571 428.2,1.82 -194.51,234.199" /><path
         id="path364"
         style="fill:#e4edf4;fill-opacity: 0.12;fill-rule:nonzero;stroke:none"
         d="m 1669.94,394.801 -78.06,228.769 -143.8,421.08 -723.467,-254.13 389.727,-166.95 559.32,-239.648 -3.26,9.699 -0.46,1.18" /><path
         id="path366"
         style="fill:#d3e2ee;fill-opacity: 0.12;fill-rule:nonzero;stroke:none"
         d="m 1779.54,0 c -57.39,198.148 -99.54,345.371 -109.6,384.422 l 0.67,-0.063 3.05,-0.437 L 1114.34,623.57 724.613,790.52 0,640.211 0,612.531 1663.43,385.309 C 1648.88,346.219 1597.58,191.18 1535.08,0 l 244.46,0" /></g></g></svg>